# Blender 3.4.1
# www.blender.org
o Sphere
v 0.000000 0.831470 -0.555570
v 0.000000 0.555570 -0.831470
v 0.000000 0.195090 -0.980785
v 0.000000 0.000000 -1.000000
v 0.000000 -0.195090 -0.980785
v 0.038060 0.980785 -0.191342
v 0.074658 0.923880 -0.375330
v 0.108386 0.831470 -0.544895
v 0.137950 0.707107 -0.693520
v 0.162212 0.555570 -0.815493
v 0.180240 0.382683 -0.906127
v 0.191342 0.195090 -0.961940
v 0.195090 0.000000 -0.980785
v 0.191342 -0.195090 -0.961940
v 0.074658 0.980785 -0.180240
v 0.146447 0.923880 -0.353553
v 0.212608 0.831470 -0.513280
v 0.270598 0.707107 -0.653281
v 0.318190 0.555570 -0.768178
v 0.353553 0.382683 -0.853553
v 0.375330 0.195090 -0.906127
v 0.382683 0.000000 -0.923879
v 0.375330 -0.195090 -0.906127
v 0.108386 0.980785 -0.162212
v 0.212608 0.923880 -0.318190
v 0.308658 0.831470 -0.461940
v 0.392847 0.707107 -0.587938
v 0.461940 0.555570 -0.691342
v 0.513280 0.382683 -0.768178
v 0.544895 0.195090 -0.815493
v 0.555570 0.000000 -0.831469
v 0.544895 -0.195090 -0.815493
v 0.137950 0.980785 -0.137950
v 0.270598 0.923880 -0.270598
v 0.392847 0.831470 -0.392847
v 0.500000 0.707107 -0.500000
v 0.587938 0.555570 -0.587938
v 0.653281 0.382683 -0.653281
v 0.693520 0.195090 -0.693520
v 0.707107 0.000000 -0.707107
v 0.693520 -0.195090 -0.693520
v 0.162212 0.980785 -0.108386
v 0.318190 0.923880 -0.212608
v 0.461940 0.831470 -0.308658
v 0.587938 0.707107 -0.392847
v 0.691342 0.555570 -0.461940
v 0.768178 0.382683 -0.513280
v 0.815493 0.195090 -0.544895
v 0.831470 0.000000 -0.555570
v 0.815493 -0.195090 -0.544895
v 0.000000 1.000000 0.000000
v 0.180240 0.980785 -0.074658
v 0.353553 0.923880 -0.146447
v 0.513280 0.831470 -0.212607
v 0.653281 0.707107 -0.270598
v 0.768178 0.555570 -0.318190
v 0.853553 0.382683 -0.353553
v 0.906127 0.195090 -0.375330
v 0.923879 0.000000 -0.382683
v 0.906127 -0.195090 -0.375330
v 0.191342 0.980785 -0.038060
v 0.375330 0.923880 -0.074658
v 0.544895 0.831470 -0.108386
v 0.693520 0.707107 -0.137950
v 0.815493 0.555570 -0.162212
v 0.906127 0.382683 -0.180240
v 0.961940 0.195090 -0.191342
v 0.980785 0.000000 -0.195090
v 0.961940 -0.195090 -0.191342
v 0.195090 0.980785 0.000000
v 0.382683 0.923880 0.000000
v 0.555570 0.831470 0.000000
v 0.707107 0.707107 -0.000000
v 0.831469 0.555570 0.000000
v 0.923879 0.382683 -0.000000
v 0.980785 0.195090 0.000000
v 1.000000 0.000000 0.000000
v 0.980785 -0.195090 0.000000
v 0.191342 0.980785 0.038060
v 0.375330 0.923880 0.074658
v 0.544895 0.831470 0.108386
v 0.693520 0.707107 0.137950
v 0.815493 0.555570 0.162212
v 0.906127 0.382683 0.180240
v 0.961940 0.195090 0.191342
v 0.980785 0.000000 0.195090
v 0.961940 -0.195090 0.191342
v 0.180240 0.980785 0.074658
v 0.353553 0.923880 0.146447
v 0.513280 0.831470 0.212608
v 0.653281 0.707107 0.270598
v 0.768178 0.555570 0.318190
v 0.853553 0.382683 0.353553
v 0.906127 0.195090 0.375330
v 0.923879 0.000000 0.382683
v 0.906127 -0.195090 0.375330
v 0.162212 0.980785 0.108386
v 0.318190 0.923880 0.212608
v 0.461940 0.831470 0.308658
v 0.587938 0.707107 0.392847
v 0.691341 0.555570 0.461940
v 0.768178 0.382683 0.513280
v 0.815493 0.195090 0.544895
v 0.831469 0.000000 0.555570
v 0.815493 -0.195090 0.544895
v 0.137950 0.980785 0.137950
v 0.270598 0.923880 0.270598
v 0.392847 0.831470 0.392847
v 0.500000 0.707107 0.500000
v 0.587938 0.555570 0.587938
v 0.653281 0.382683 0.653281
v 0.693520 0.195090 0.693520
v 0.707106 0.000000 0.707107
v 0.693520 -0.195090 0.693520
v 0.108386 0.980785 0.162212
v 0.212607 0.923880 0.318190
v 0.308658 0.831470 0.461940
v 0.392847 0.707107 0.587938
v 0.461940 0.555570 0.691342
v 0.513280 0.382683 0.768178
v 0.544895 0.195090 0.815493
v 0.555570 0.000000 0.831469
v 0.544895 -0.195090 0.815493
v 0.074658 0.980785 0.180240
v 0.146447 0.923880 0.353553
v 0.212607 0.831470 0.513280
v 0.270598 0.707107 0.653281
v 0.318189 0.555570 0.768178
v 0.353553 0.382683 0.853553
v 0.375330 0.195090 0.906127
v 0.382683 0.000000 0.923879
v 0.375330 -0.195090 0.906127
v 0.038060 0.980785 0.191342
v 0.074658 0.923880 0.375330
v 0.108386 0.831470 0.544895
v 0.137950 0.707107 0.693520
v 0.162212 0.555570 0.815493
v 0.180240 0.382683 0.906127
v 0.191342 0.195090 0.961939
v 0.195090 0.000000 0.980785
v 0.191342 -0.195090 0.961939
v -0.000000 0.980785 0.195090
v -0.000000 0.923880 0.382683
v -0.000000 0.831470 0.555570
v -0.000000 0.707107 0.707107
v -0.000000 0.555570 0.831469
v 0.000000 0.382683 0.923879
v -0.000000 0.195090 0.980785
v -0.000000 0.000000 0.999999
v -0.000000 -0.195090 0.980785
v -0.038060 0.980785 0.191342
v -0.074658 0.923880 0.375330
v -0.108386 0.831470 0.544895
v -0.137950 0.707107 0.693520
v -0.162212 0.555570 0.815493
v -0.180240 0.382683 0.906127
v -0.191342 0.195090 0.961939
v -0.195091 0.000000 0.980785
v -0.191342 -0.195090 0.961939
v -0.074658 0.980785 0.180240
v -0.146447 0.923880 0.353553
v -0.212608 0.831470 0.513280
v -0.270598 0.707107 0.653281
v -0.318190 0.555570 0.768177
v -0.353553 0.382683 0.853553
v -0.375330 0.195090 0.906127
v -0.382683 0.000000 0.923879
v -0.375330 -0.195090 0.906127
v -0.108386 0.980785 0.162212
v -0.212608 0.923880 0.318190
v -0.308658 0.831470 0.461939
v -0.392847 0.707107 0.587938
v -0.461940 0.555570 0.691341
v -0.513280 0.382683 0.768178
v -0.544895 0.195090 0.815493
v -0.555570 0.000000 0.831469
v -0.544895 -0.195090 0.815493
v -0.137950 0.980785 0.137950
v -0.270598 0.923880 0.270598
v -0.392847 0.831470 0.392847
v -0.500000 0.707107 0.500000
v -0.587938 0.555570 0.587937
v -0.653281 0.382683 0.653281
v -0.693520 0.195090 0.693520
v -0.707106 0.000000 0.707106
v -0.693520 -0.195090 0.693520
v -0.162212 0.980785 0.108386
v -0.318190 0.923880 0.212607
v -0.461940 0.831470 0.308658
v -0.587938 0.707107 0.392847
v -0.691341 0.555570 0.461939
v -0.768177 0.382683 0.513280
v -0.815493 0.195090 0.544895
v -0.831469 0.000000 0.555569
v -0.815493 -0.195090 0.544895
v -0.180240 0.980785 0.074658
v -0.353553 0.923880 0.146447
v -0.513280 0.831470 0.212607
v -0.653281 0.707107 0.270598
v -0.768177 0.555570 0.318189
v -0.853553 0.382683 0.353553
v -0.906127 0.195090 0.375330
v -0.923879 0.000000 0.382683
v -0.906127 -0.195090 0.375330
v -0.191342 0.980785 0.038060
v -0.375330 0.923880 0.074658
v -0.544895 0.831470 0.108386
v -0.693520 0.707107 0.137950
v -0.815493 0.555570 0.162211
v -0.906127 0.382683 0.180240
v -0.961939 0.195090 0.191341
v -0.980784 0.000000 0.195090
v -0.961939 -0.195090 0.191341
v -0.195090 0.980785 -0.000000
v -0.382683 0.923880 -0.000000
v -0.555570 0.831470 -0.000000
v -0.707107 0.707107 -0.000000
v -0.831469 0.555570 -0.000000
v -0.923879 0.382683 -0.000000
v -0.980785 0.195090 -0.000000
v -0.999999 0.000000 -0.000000
v -0.980785 -0.195090 -0.000000
v -0.191342 0.980785 -0.038060
v -0.375330 0.923880 -0.074658
v -0.544895 0.831470 -0.108386
v -0.693520 0.707107 -0.137950
v -0.815493 0.555570 -0.162212
v -0.906127 0.382683 -0.180240
v -0.961939 0.195090 -0.191342
v -0.980784 0.000000 -0.195091
v -0.961939 -0.195090 -0.191342
v -0.180240 0.980785 -0.074658
v -0.353553 0.923880 -0.146447
v -0.513279 0.831470 -0.212607
v -0.653281 0.707107 -0.270598
v -0.768177 0.555570 -0.318190
v -0.853553 0.382683 -0.353553
v -0.906127 0.195090 -0.375330
v -0.923878 0.000000 -0.382683
v -0.906127 -0.195090 -0.375330
v -0.162212 0.980785 -0.108386
v -0.318189 0.923880 -0.212607
v -0.461939 0.831470 -0.308658
v -0.587938 0.707107 -0.392847
v -0.691341 0.555570 -0.461940
v -0.768177 0.382683 -0.513280
v -0.815493 0.195090 -0.544895
v -0.831468 0.000000 -0.555570
v -0.815493 -0.195090 -0.544895
v -0.137950 0.980785 -0.137950
v -0.270598 0.923880 -0.270598
v -0.392847 0.831470 -0.392847
v -0.500000 0.707107 -0.500000
v -0.587937 0.555570 -0.587938
v -0.653281 0.382683 -0.653281
v -0.693519 0.195090 -0.693520
v -0.707106 0.000000 -0.707106
v -0.693519 -0.195090 -0.693520
v -0.108386 0.980785 -0.162212
v -0.212607 0.923880 -0.318190
v -0.308658 0.831470 -0.461939
v -0.392847 0.707107 -0.587938
v -0.461939 0.555570 -0.691341
v -0.513280 0.382683 -0.768177
v -0.544895 0.195090 -0.815493
v -0.555569 0.000000 -0.831469
v -0.544895 -0.195090 -0.815493
v -0.074658 0.980785 -0.180240
v -0.146446 0.923880 -0.353553
v -0.212607 0.831470 -0.513279
v -0.270598 0.707107 -0.653281
v -0.318189 0.555570 -0.768177
v -0.353553 0.382683 -0.853553
v -0.375330 0.195090 -0.906127
v -0.382683 0.000000 -0.923879
v -0.375330 -0.195090 -0.906127
v -0.038060 0.980785 -0.191342
v -0.074658 0.923880 -0.375330
v -0.108386 0.831470 -0.544895
v -0.137950 0.707107 -0.693520
v -0.162211 0.555570 -0.815493
v -0.180240 0.382683 -0.906127
v -0.191341 0.195090 -0.961939
v -0.195090 0.000000 -0.980784
v -0.191341 -0.195090 -0.961939
v 0.000000 0.980785 -0.195090
v 0.000000 0.923880 -0.382683
v 0.000000 0.707107 -0.707107
v 0.000000 0.382683 -0.923879
vn 0.0975 0.0975 -0.9904
vn 0.0097 0.9951 -0.0980
vn 0.0975 -0.0975 -0.9904
vn 0.0286 0.9565 -0.2902
vn 0.0464 0.8810 -0.4709
vn 0.0624 0.7715 -0.6332
vn 0.0759 0.6326 -0.7708
vn 0.0865 0.4696 -0.8786
vn 0.0938 0.2890 -0.9527
vn 0.2779 0.2890 -0.9161
vn 0.2889 0.0976 -0.9524
vn 0.0286 0.9951 -0.0942
vn 0.2889 -0.0976 -0.9524
vn 0.0846 0.9565 -0.2790
vn 0.1374 0.8810 -0.4528
vn 0.1847 0.7715 -0.6088
vn 0.2248 0.6326 -0.7412
vn 0.2563 0.4696 -0.8448
vn 0.2999 0.7715 -0.5611
vn 0.3651 0.6326 -0.6831
vn 0.4162 0.4696 -0.7786
vn 0.4513 0.2890 -0.8443
vn 0.4691 0.0975 -0.8777
vn 0.0464 0.9951 -0.0869
vn 0.4691 -0.0975 -0.8777
vn 0.1374 0.9565 -0.2571
vn 0.2230 0.8810 -0.4173
vn 0.6314 0.0975 -0.7693
vn 0.0625 0.9951 -0.0761
vn 0.6314 -0.0975 -0.7693
vn 0.1850 0.9565 -0.2254
vn 0.3002 0.8810 -0.3658
vn 0.4036 0.7715 -0.4918
vn 0.4913 0.6326 -0.5987
vn 0.5601 0.4696 -0.6825
vn 0.6073 0.2890 -0.7400
vn 0.4918 0.7715 -0.4036
vn 0.5987 0.6326 -0.4913
vn 0.6825 0.4696 -0.5601
vn 0.7400 0.2890 -0.6073
vn 0.7693 0.0975 -0.6314
vn 0.0761 0.9951 -0.0625
vn 0.7693 -0.0975 -0.6314
vn 0.2254 0.9565 -0.1850
vn 0.3658 0.8810 -0.3002
vn 0.8777 0.0975 -0.4691
vn 0.0869 0.9951 -0.0464
vn 0.8777 -0.0975 -0.4691
vn 0.2571 0.9565 -0.1374
vn 0.4173 0.8810 -0.2230
vn 0.5611 0.7715 -0.2999
vn 0.6831 0.6326 -0.3651
vn 0.7786 0.4696 -0.4162
vn 0.8443 0.2890 -0.4513
vn 0.7412 0.6326 -0.2248
vn 0.8448 0.4696 -0.2563
vn 0.9161 0.2890 -0.2779
vn 0.9524 0.0975 -0.2889
vn 0.0942 0.9951 -0.0286
vn 0.9524 -0.0975 -0.2889
vn 0.2790 0.9565 -0.0846
vn 0.4528 0.8810 -0.1374
vn 0.6088 0.7715 -0.1847
vn 0.9904 -0.0975 -0.0975
vn 0.2902 0.9565 -0.0286
vn 0.4709 0.8810 -0.0464
vn 0.6332 0.7715 -0.0624
vn 0.7708 0.6326 -0.0759
vn 0.8786 0.4696 -0.0865
vn 0.9527 0.2890 -0.0938
vn 0.9904 0.0975 -0.0975
vn 0.0980 0.9951 -0.0097
vn 0.8786 0.4696 0.0865
vn 0.9527 0.2890 0.0938
vn 0.9904 0.0975 0.0976
vn 0.0980 0.9951 0.0097
vn 0.9904 -0.0975 0.0976
vn 0.2902 0.9565 0.0286
vn 0.4709 0.8810 0.0464
vn 0.6332 0.7715 0.0624
vn 0.7708 0.6326 0.0759
vn 0.2790 0.9565 0.0846
vn 0.4528 0.8810 0.1374
vn 0.6088 0.7715 0.1847
vn 0.7412 0.6326 0.2248
vn 0.8448 0.4696 0.2563
vn 0.9161 0.2890 0.2779
vn 0.9524 0.0975 0.2889
vn 0.0942 0.9951 0.0286
vn 0.9524 -0.0975 0.2889
vn 0.7786 0.4696 0.4162
vn 0.8443 0.2890 0.4513
vn 0.8777 0.0975 0.4691
vn 0.0869 0.9951 0.0464
vn 0.8777 -0.0975 0.4691
vn 0.2571 0.9565 0.1374
vn 0.4173 0.8810 0.2230
vn 0.5611 0.7715 0.2999
vn 0.6831 0.6326 0.3651
vn 0.3658 0.8810 0.3002
vn 0.4918 0.7715 0.4036
vn 0.5987 0.6326 0.4913
vn 0.6825 0.4696 0.5601
vn 0.7400 0.2890 0.6073
vn 0.7693 0.0975 0.6314
vn 0.0761 0.9951 0.0625
vn 0.7693 -0.0975 0.6314
vn 0.2254 0.9565 0.1850
vn 0.6073 0.2890 0.7400
vn 0.6314 0.0975 0.7693
vn 0.0625 0.9951 0.0761
vn 0.6314 -0.0975 0.7693
vn 0.1850 0.9565 0.2254
vn 0.3002 0.8810 0.3658
vn 0.4036 0.7715 0.4918
vn 0.4913 0.6326 0.5987
vn 0.5601 0.4696 0.6825
vn 0.2230 0.8810 0.4173
vn 0.2999 0.7715 0.5611
vn 0.3651 0.6326 0.6831
vn 0.4162 0.4696 0.7786
vn 0.4513 0.2890 0.8443
vn 0.4691 0.0975 0.8777
vn 0.0464 0.9951 0.0869
vn 0.4691 -0.0975 0.8777
vn 0.1374 0.9565 0.2571
vn 0.2779 0.2890 0.9161
vn 0.2889 0.0975 0.9524
vn 0.0286 0.9951 0.0942
vn 0.2889 -0.0975 0.9524
vn 0.0846 0.9565 0.2790
vn 0.1374 0.8810 0.4528
vn 0.1847 0.7715 0.6088
vn 0.2248 0.6326 0.7412
vn 0.2563 0.4696 0.8448
vn 0.0624 0.7715 0.6332
vn 0.0759 0.6326 0.7708
vn 0.0865 0.4696 0.8786
vn 0.0938 0.2890 0.9527
vn 0.0975 0.0975 0.9904
vn 0.0097 0.9951 0.0980
vn 0.0975 -0.0975 0.9904
vn 0.0286 0.9565 0.2902
vn 0.0464 0.8810 0.4709
vn -0.0976 0.0975 0.9904
vn -0.0097 0.9951 0.0980
vn -0.0976 -0.0975 0.9904
vn -0.0286 0.9565 0.2902
vn -0.0464 0.8810 0.4709
vn -0.0624 0.7715 0.6332
vn -0.0759 0.6326 0.7708
vn -0.0865 0.4696 0.8786
vn -0.0938 0.2890 0.9527
vn -0.2248 0.6326 0.7412
vn -0.2563 0.4696 0.8448
vn -0.2779 0.2890 0.9161
vn -0.2889 0.0975 0.9524
vn -0.0286 0.9951 0.0942
vn -0.2889 -0.0975 0.9524
vn -0.0846 0.9565 0.2790
vn -0.1374 0.8810 0.4528
vn -0.1847 0.7715 0.6088
vn -0.0464 0.9951 0.0869
vn -0.4691 -0.0975 0.8777
vn -0.1374 0.9565 0.2571
vn -0.2230 0.8810 0.4173
vn -0.2999 0.7715 0.5611
vn -0.3651 0.6326 0.6831
vn -0.4162 0.4696 0.7786
vn -0.4513 0.2890 0.8443
vn -0.4691 0.0975 0.8777
vn -0.4913 0.6326 0.5987
vn -0.5601 0.4696 0.6825
vn -0.6073 0.2890 0.7400
vn -0.6314 0.0975 0.7693
vn -0.0625 0.9951 0.0761
vn -0.6314 -0.0975 0.7693
vn -0.1850 0.9565 0.2254
vn -0.3002 0.8810 0.3658
vn -0.4036 0.7715 0.4918
vn -0.7693 -0.0975 0.6314
vn -0.2254 0.9565 0.1850
vn -0.3658 0.8810 0.3002
vn -0.4918 0.7715 0.4036
vn -0.5987 0.6326 0.4913
vn -0.6825 0.4696 0.5601
vn -0.7400 0.2890 0.6073
vn -0.7693 0.0975 0.6314
vn -0.0761 0.9951 0.0625
vn -0.7786 0.4696 0.4162
vn -0.8443 0.2890 0.4513
vn -0.8777 0.0975 0.4691
vn -0.0869 0.9951 0.0464
vn -0.8777 -0.0975 0.4691
vn -0.2571 0.9565 0.1374
vn -0.4173 0.8810 0.2230
vn -0.5611 0.7715 0.2999
vn -0.6831 0.6326 0.3651
vn -0.2790 0.9565 0.0846
vn -0.4528 0.8810 0.1374
vn -0.6088 0.7715 0.1847
vn -0.7412 0.6326 0.2248
vn -0.8448 0.4696 0.2563
vn -0.9161 0.2890 0.2779
vn -0.9524 0.0975 0.2889
vn -0.0942 0.9951 0.0286
vn -0.9524 -0.0975 0.2889
vn -0.8786 0.4696 0.0865
vn -0.9527 0.2890 0.0938
vn -0.9904 0.0975 0.0975
vn -0.0980 0.9951 0.0097
vn -0.9904 -0.0975 0.0975
vn -0.2902 0.9565 0.0286
vn -0.4709 0.8810 0.0464
vn -0.6332 0.7715 0.0624
vn -0.7708 0.6326 0.0759
vn -0.4709 0.8810 -0.0464
vn -0.6332 0.7715 -0.0624
vn -0.7708 0.6326 -0.0759
vn -0.8786 0.4696 -0.0865
vn -0.9527 0.2890 -0.0938
vn -0.9904 0.0975 -0.0976
vn -0.0980 0.9951 -0.0097
vn -0.9904 -0.0975 -0.0976
vn -0.2902 0.9565 -0.0286
vn -0.9161 0.2890 -0.2779
vn -0.9524 0.0975 -0.2889
vn -0.0942 0.9951 -0.0286
vn -0.9524 -0.0975 -0.2889
vn -0.2790 0.9565 -0.0846
vn -0.4528 0.8810 -0.1374
vn -0.6088 0.7715 -0.1847
vn -0.7412 0.6326 -0.2248
vn -0.8448 0.4696 -0.2563
vn -0.5611 0.7715 -0.2999
vn -0.6831 0.6326 -0.3651
vn -0.7786 0.4696 -0.4162
vn -0.8443 0.2890 -0.4513
vn -0.8777 0.0975 -0.4691
vn -0.0869 0.9951 -0.0464
vn -0.8777 -0.0975 -0.4691
vn -0.2571 0.9565 -0.1374
vn -0.4173 0.8810 -0.2231
vn -0.7693 0.0975 -0.6314
vn -0.0761 0.9951 -0.0625
vn -0.7693 -0.0975 -0.6314
vn -0.2254 0.9565 -0.1850
vn -0.3658 0.8810 -0.3002
vn -0.4918 0.7715 -0.4036
vn -0.5987 0.6326 -0.4913
vn -0.6825 0.4696 -0.5601
vn -0.7400 0.2890 -0.6073
vn -0.4036 0.7715 -0.4918
vn -0.4913 0.6326 -0.5987
vn -0.5601 0.4696 -0.6825
vn -0.6073 0.2890 -0.7400
vn -0.6314 0.0975 -0.7693
vn -0.0625 0.9951 -0.0761
vn -0.6314 -0.0975 -0.7693
vn -0.1850 0.9565 -0.2254
vn -0.3002 0.8810 -0.3658
vn -0.4691 0.0975 -0.8777
vn -0.0464 0.9951 -0.0869
vn -0.4691 -0.0975 -0.8777
vn -0.1374 0.9565 -0.2571
vn -0.2230 0.8810 -0.4173
vn -0.2999 0.7715 -0.5611
vn -0.3651 0.6326 -0.6831
vn -0.4162 0.4696 -0.7786
vn -0.4513 0.2890 -0.8443
vn -0.2248 0.6326 -0.7412
vn -0.2563 0.4696 -0.8448
vn -0.2779 0.2890 -0.9161
vn -0.2889 0.0975 -0.9524
vn -0.0286 0.9951 -0.0942
vn -0.2889 -0.0975 -0.9524
vn -0.0846 0.9565 -0.2790
vn -0.1374 0.8810 -0.4528
vn -0.1847 0.7715 -0.6088
vn -0.0097 0.9951 -0.0980
vn -0.0976 -0.0975 -0.9904
vn -0.0286 0.9565 -0.2902
vn -0.0464 0.8810 -0.4709
vn -0.0624 0.7715 -0.6332
vn -0.0759 0.6326 -0.7708
vn -0.0865 0.4696 -0.8786
vn -0.0938 0.2890 -0.9527
vn -0.0976 0.0975 -0.9904
vt 0.750000 0.812500
vt 0.750000 0.687500
vt 0.750000 0.562500
vt 0.750000 0.500000
vt 0.750000 0.437500
vt 0.718750 0.937500
vt 0.718750 0.875000
vt 0.718750 0.812500
vt 0.718750 0.750000
vt 0.718750 0.687500
vt 0.718750 0.625000
vt 0.718750 0.562500
vt 0.718750 0.500000
vt 0.718750 0.437500
vt 0.687500 0.937500
vt 0.687500 0.875000
vt 0.687500 0.812500
vt 0.687500 0.750000
vt 0.687500 0.687500
vt 0.687500 0.625000
vt 0.687500 0.562500
vt 0.687500 0.500000
vt 0.687500 0.437500
vt 0.656250 0.937500
vt 0.656250 0.875000
vt 0.656250 0.812500
vt 0.656250 0.750000
vt 0.656250 0.687500
vt 0.656250 0.625000
vt 0.656250 0.562500
vt 0.656250 0.500000
vt 0.656250 0.437500
vt 0.625000 0.937500
vt 0.625000 0.875000
vt 0.625000 0.812500
vt 0.625000 0.750000
vt 0.625000 0.687500
vt 0.625000 0.625000
vt 0.625000 0.562500
vt 0.625000 0.500000
vt 0.625000 0.437500
vt 0.593750 0.937500
vt 0.593750 0.875000
vt 0.593750 0.812500
vt 0.593750 0.750000
vt 0.593750 0.687500
vt 0.593750 0.625000
vt 0.593750 0.562500
vt 0.593750 0.500000
vt 0.593750 0.437500
vt 0.734375 1.000000
vt 0.703125 1.000000
vt 0.671875 1.000000
vt 0.640625 1.000000
vt 0.609375 1.000000
vt 0.578125 1.000000
vt 0.546875 1.000000
vt 0.515625 1.000000
vt 0.484375 1.000000
vt 0.453125 1.000000
vt 0.421875 1.000000
vt 0.390625 1.000000
vt 0.359375 1.000000
vt 0.328125 1.000000
vt 0.296875 1.000000
vt 0.265625 1.000000
vt 0.234375 1.000000
vt 0.203125 1.000000
vt 0.171875 1.000000
vt 0.140625 1.000000
vt 0.109375 1.000000
vt 0.078125 1.000000
vt 0.046875 1.000000
vt 0.015625 1.000000
vt 0.984375 1.000000
vt 0.953125 1.000000
vt 0.921875 1.000000
vt 0.890625 1.000000
vt 0.859375 1.000000
vt 0.828125 1.000000
vt 0.796875 1.000000
vt 0.765625 1.000000
vt 0.562500 0.937500
vt 0.562500 0.875000
vt 0.562500 0.812500
vt 0.562500 0.750000
vt 0.562500 0.687500
vt 0.562500 0.625000
vt 0.562500 0.562500
vt 0.562500 0.500000
vt 0.562500 0.437500
vt 0.531250 0.937500
vt 0.531250 0.875000
vt 0.531250 0.812500
vt 0.531250 0.750000
vt 0.531250 0.687500
vt 0.531250 0.625000
vt 0.531250 0.562500
vt 0.531250 0.500000
vt 0.531250 0.437500
vt 0.500000 0.937500
vt 0.500000 0.875000
vt 0.500000 0.812500
vt 0.500000 0.750000
vt 0.500000 0.687500
vt 0.500000 0.625000
vt 0.500000 0.562500
vt 0.500000 0.500000
vt 0.500000 0.437500
vt 0.468750 0.937500
vt 0.468750 0.875000
vt 0.468750 0.812500
vt 0.468750 0.750000
vt 0.468750 0.687500
vt 0.468750 0.625000
vt 0.468750 0.562500
vt 0.468750 0.500000
vt 0.468750 0.437500
vt 0.437500 0.937500
vt 0.437500 0.875000
vt 0.437500 0.812500
vt 0.437500 0.750000
vt 0.437500 0.687500
vt 0.437500 0.625000
vt 0.437500 0.562500
vt 0.437500 0.500000
vt 0.437500 0.437500
vt 0.406250 0.937500
vt 0.406250 0.875000
vt 0.406250 0.812500
vt 0.406250 0.750000
vt 0.406250 0.687500
vt 0.406250 0.625000
vt 0.406250 0.562500
vt 0.406250 0.500000
vt 0.406250 0.437500
vt 0.375000 0.937500
vt 0.375000 0.875000
vt 0.375000 0.812500
vt 0.375000 0.750000
vt 0.375000 0.687500
vt 0.375000 0.625000
vt 0.375000 0.562500
vt 0.375000 0.500000
vt 0.375000 0.437500
vt 0.343750 0.937500
vt 0.343750 0.875000
vt 0.343750 0.812500
vt 0.343750 0.750000
vt 0.343750 0.687500
vt 0.343750 0.625000
vt 0.343750 0.562500
vt 0.343750 0.500000
vt 0.343750 0.437500
vt 0.312500 0.937500
vt 0.312500 0.875000
vt 0.312500 0.812500
vt 0.312500 0.750000
vt 0.312500 0.687500
vt 0.312500 0.625000
vt 0.312500 0.562500
vt 0.312500 0.500000
vt 0.312500 0.437500
vt 0.281250 0.937500
vt 0.281250 0.875000
vt 0.281250 0.812500
vt 0.281250 0.750000
vt 0.281250 0.687500
vt 0.281250 0.625000
vt 0.281250 0.562500
vt 0.281250 0.500000
vt 0.281250 0.437500
vt 0.250000 0.937500
vt 0.250000 0.875000
vt 0.250000 0.812500
vt 0.250000 0.750000
vt 0.250000 0.687500
vt 0.250000 0.625000
vt 0.250000 0.562500
vt 0.250000 0.500000
vt 0.250000 0.437500
vt 0.218750 0.937500
vt 0.218750 0.875000
vt 0.218750 0.812500
vt 0.218750 0.750000
vt 0.218750 0.687500
vt 0.218750 0.625000
vt 0.218750 0.562500
vt 0.218750 0.500000
vt 0.218750 0.437500
vt 0.187500 0.937500
vt 0.187500 0.875000
vt 0.187500 0.812500
vt 0.187500 0.750000
vt 0.187500 0.687500
vt 0.187500 0.625000
vt 0.187500 0.562500
vt 0.187500 0.500000
vt 0.187500 0.437500
vt 0.156250 0.937500
vt 0.156250 0.875000
vt 0.156250 0.812500
vt 0.156250 0.750000
vt 0.156250 0.687500
vt 0.156250 0.625000
vt 0.156250 0.562500
vt 0.156250 0.500000
vt 0.156250 0.437500
vt 0.125000 0.937500
vt 0.125000 0.875000
vt 0.125000 0.812500
vt 0.125000 0.750000
vt 0.125000 0.687500
vt 0.125000 0.625000
vt 0.125000 0.562500
vt 0.125000 0.500000
vt 0.125000 0.437500
vt 0.093750 0.937500
vt 0.093750 0.875000
vt 0.093750 0.812500
vt 0.093750 0.750000
vt 0.093750 0.687500
vt 0.093750 0.625000
vt 0.093750 0.562500
vt 0.093750 0.500000
vt 0.093750 0.437500
vt 0.062500 0.937500
vt 0.062500 0.875000
vt 0.062500 0.812500
vt 0.062500 0.750000
vt 0.062500 0.687500
vt 0.062500 0.625000
vt 0.062500 0.562500
vt 0.062500 0.500000
vt 0.062500 0.437500
vt 0.031250 0.937500
vt 0.031250 0.875000
vt 0.031250 0.812500
vt 0.031250 0.750000
vt 0.031250 0.687500
vt 0.031250 0.625000
vt 0.031250 0.562500
vt 0.031250 0.500000
vt 0.031250 0.437500
vt 0.000000 0.937500
vt 1.000000 0.937500
vt 0.000000 0.875000
vt 1.000000 0.875000
vt 0.000000 0.812500
vt 1.000000 0.812500
vt 0.000000 0.750000
vt 1.000000 0.750000
vt 0.000000 0.687500
vt 1.000000 0.687500
vt 0.000000 0.625000
vt 1.000000 0.625000
vt 0.000000 0.562500
vt 1.000000 0.562500
vt 0.000000 0.500000
vt 1.000000 0.500000
vt 0.000000 0.437500
vt 1.000000 0.437500
vt 0.968750 0.937500
vt 0.968750 0.875000
vt 0.968750 0.812500
vt 0.968750 0.750000
vt 0.968750 0.687500
vt 0.968750 0.625000
vt 0.968750 0.562500
vt 0.968750 0.500000
vt 0.968750 0.437500
vt 0.937500 0.937500
vt 0.937500 0.875000
vt 0.937500 0.812500
vt 0.937500 0.750000
vt 0.937500 0.687500
vt 0.937500 0.625000
vt 0.937500 0.562500
vt 0.937500 0.500000
vt 0.937500 0.437500
vt 0.906250 0.937500
vt 0.906250 0.875000
vt 0.906250 0.812500
vt 0.906250 0.750000
vt 0.906250 0.687500
vt 0.906250 0.625000
vt 0.906250 0.562500
vt 0.906250 0.500000
vt 0.906250 0.437500
vt 0.875000 0.937500
vt 0.875000 0.875000
vt 0.875000 0.812500
vt 0.875000 0.750000
vt 0.875000 0.687500
vt 0.875000 0.625000
vt 0.875000 0.562500
vt 0.875000 0.500000
vt 0.875000 0.437500
vt 0.843750 0.937500
vt 0.843750 0.875000
vt 0.843750 0.812500
vt 0.843750 0.750000
vt 0.843750 0.687500
vt 0.843750 0.625000
vt 0.843750 0.562500
vt 0.843750 0.500000
vt 0.843750 0.437500
vt 0.812500 0.937500
vt 0.812500 0.875000
vt 0.812500 0.812500
vt 0.812500 0.750000
vt 0.812500 0.687500
vt 0.812500 0.625000
vt 0.812500 0.562500
vt 0.812500 0.500000
vt 0.812500 0.437500
vt 0.781250 0.937500
vt 0.781250 0.875000
vt 0.781250 0.812500
vt 0.781250 0.750000
vt 0.781250 0.687500
vt 0.781250 0.625000
vt 0.781250 0.562500
vt 0.781250 0.500000
vt 0.781250 0.437500
vt 0.750000 0.937500
vt 0.750000 0.875000
vt 0.750000 0.750000
vt 0.750000 0.625000
s 0
f 4/4/1 3/3/1 12/12/1 13/13/1
f 286/326/2 51/51/2 6/6/2
f 5/5/3 4/4/3 13/13/3 14/14/3
f 287/327/4 286/326/4 6/6/4 7/7/4
f 1/1/5 287/327/5 7/7/5 8/8/5
f 288/328/6 1/1/6 8/8/6 9/9/6
f 2/2/7 288/328/7 9/9/7 10/10/7
f 289/329/8 2/2/8 10/10/8 11/11/8
f 3/3/9 289/329/9 11/11/9 12/12/9
f 12/12/10 11/11/10 20/20/10 21/21/10
f 13/13/11 12/12/11 21/21/11 22/22/11
f 6/6/12 51/52/12 15/15/12
f 14/14/13 13/13/13 22/22/13 23/23/13
f 7/7/14 6/6/14 15/15/14 16/16/14
f 8/8/15 7/7/15 16/16/15 17/17/15
f 9/9/16 8/8/16 17/17/16 18/18/16
f 10/10/17 9/9/17 18/18/17 19/19/17
f 11/11/18 10/10/18 19/19/18 20/20/18
f 18/18/19 17/17/19 26/26/19 27/27/19
f 19/19/20 18/18/20 27/27/20 28/28/20
f 20/20/21 19/19/21 28/28/21 29/29/21
f 21/21/22 20/20/22 29/29/22 30/30/22
f 22/22/23 21/21/23 30/30/23 31/31/23
f 15/15/24 51/53/24 24/24/24
f 23/23/25 22/22/25 31/31/25 32/32/25
f 16/16/26 15/15/26 24/24/26 25/25/26
f 17/17/27 16/16/27 25/25/27 26/26/27
f 31/31/28 30/30/28 39/39/28 40/40/28
f 24/24/29 51/54/29 33/33/29
f 32/32/30 31/31/30 40/40/30 41/41/30
f 25/25/31 24/24/31 33/33/31 34/34/31
f 26/26/32 25/25/32 34/34/32 35/35/32
f 27/27/33 26/26/33 35/35/33 36/36/33
f 28/28/34 27/27/34 36/36/34 37/37/34
f 29/29/35 28/28/35 37/37/35 38/38/35
f 30/30/36 29/29/36 38/38/36 39/39/36
f 36/36/37 35/35/37 44/44/37 45/45/37
f 37/37/38 36/36/38 45/45/38 46/46/38
f 38/38/39 37/37/39 46/46/39 47/47/39
f 39/39/40 38/38/40 47/47/40 48/48/40
f 40/40/41 39/39/41 48/48/41 49/49/41
f 33/33/42 51/55/42 42/42/42
f 41/41/43 40/40/43 49/49/43 50/50/43
f 34/34/44 33/33/44 42/42/44 43/43/44
f 35/35/45 34/34/45 43/43/45 44/44/45
f 49/49/46 48/48/46 58/89/46 59/90/46
f 42/42/47 51/56/47 52/83/47
f 50/50/48 49/49/48 59/90/48 60/91/48
f 43/43/49 42/42/49 52/83/49 53/84/49
f 44/44/50 43/43/50 53/84/50 54/85/50
f 45/45/51 44/44/51 54/85/51 55/86/51
f 46/46/52 45/45/52 55/86/52 56/87/52
f 47/47/53 46/46/53 56/87/53 57/88/53
f 48/48/54 47/47/54 57/88/54 58/89/54
f 56/87/55 55/86/55 64/95/55 65/96/55
f 57/88/56 56/87/56 65/96/56 66/97/56
f 58/89/57 57/88/57 66/97/57 67/98/57
f 59/90/58 58/89/58 67/98/58 68/99/58
f 52/83/59 51/57/59 61/92/59
f 60/91/60 59/90/60 68/99/60 69/100/60
f 53/84/61 52/83/61 61/92/61 62/93/61
f 54/85/62 53/84/62 62/93/62 63/94/62
f 55/86/63 54/85/63 63/94/63 64/95/63
f 69/100/64 68/99/64 77/108/64 78/109/64
f 62/93/65 61/92/65 70/101/65 71/102/65
f 63/94/66 62/93/66 71/102/66 72/103/66
f 64/95/67 63/94/67 72/103/67 73/104/67
f 65/96/68 64/95/68 73/104/68 74/105/68
f 66/97/69 65/96/69 74/105/69 75/106/69
f 67/98/70 66/97/70 75/106/70 76/107/70
f 68/99/71 67/98/71 76/107/71 77/108/71
f 61/92/72 51/58/72 70/101/72
f 75/106/73 74/105/73 83/114/73 84/115/73
f 76/107/74 75/106/74 84/115/74 85/116/74
f 77/108/75 76/107/75 85/116/75 86/117/75
f 70/101/76 51/59/76 79/110/76
f 78/109/77 77/108/77 86/117/77 87/118/77
f 71/102/78 70/101/78 79/110/78 80/111/78
f 72/103/79 71/102/79 80/111/79 81/112/79
f 73/104/80 72/103/80 81/112/80 82/113/80
f 74/105/81 73/104/81 82/113/81 83/114/81
f 80/111/82 79/110/82 88/119/82 89/120/82
f 81/112/83 80/111/83 89/120/83 90/121/83
f 82/113/84 81/112/84 90/121/84 91/122/84
f 83/114/85 82/113/85 91/122/85 92/123/85
f 84/115/86 83/114/86 92/123/86 93/124/86
f 85/116/87 84/115/87 93/124/87 94/125/87
f 86/117/88 85/116/88 94/125/88 95/126/88
f 79/110/89 51/60/89 88/119/89
f 87/118/90 86/117/90 95/126/90 96/127/90
f 93/124/91 92/123/91 101/132/91 102/133/91
f 94/125/92 93/124/92 102/133/92 103/134/92
f 95/126/93 94/125/93 103/134/93 104/135/93
f 88/119/94 51/61/94 97/128/94
f 96/127/95 95/126/95 104/135/95 105/136/95
f 89/120/96 88/119/96 97/128/96 98/129/96
f 90/121/97 89/120/97 98/129/97 99/130/97
f 91/122/98 90/121/98 99/130/98 100/131/98
f 92/123/99 91/122/99 100/131/99 101/132/99
f 99/130/100 98/129/100 107/138/100 108/139/100
f 100/131/101 99/130/101 108/139/101 109/140/101
f 101/132/102 100/131/102 109/140/102 110/141/102
f 102/133/103 101/132/103 110/141/103 111/142/103
f 103/134/104 102/133/104 111/142/104 112/143/104
f 104/135/105 103/134/105 112/143/105 113/144/105
f 97/128/106 51/62/106 106/137/106
f 105/136/107 104/135/107 113/144/107 114/145/107
f 98/129/108 97/128/108 106/137/108 107/138/108
f 112/143/109 111/142/109 120/151/109 121/152/109
f 113/144/110 112/143/110 121/152/110 122/153/110
f 106/137/111 51/63/111 115/146/111
f 114/145/112 113/144/112 122/153/112 123/154/112
f 107/138/113 106/137/113 115/146/113 116/147/113
f 108/139/114 107/138/114 116/147/114 117/148/114
f 109/140/115 108/139/115 117/148/115 118/149/115
f 110/141/116 109/140/116 118/149/116 119/150/116
f 111/142/117 110/141/117 119/150/117 120/151/117
f 117/148/118 116/147/118 125/156/118 126/157/118
f 118/149/119 117/148/119 126/157/119 127/158/119
f 119/150/120 118/149/120 127/158/120 128/159/120
f 120/151/121 119/150/121 128/159/121 129/160/121
f 121/152/122 120/151/122 129/160/122 130/161/122
f 122/153/123 121/152/123 130/161/123 131/162/123
f 115/146/124 51/64/124 124/155/124
f 123/154/125 122/153/125 131/162/125 132/163/125
f 116/147/126 115/146/126 124/155/126 125/156/126
f 130/161/127 129/160/127 138/169/127 139/170/127
f 131/162/128 130/161/128 139/170/128 140/171/128
f 124/155/129 51/65/129 133/164/129
f 132/163/130 131/162/130 140/171/130 141/172/130
f 125/156/131 124/155/131 133/164/131 134/165/131
f 126/157/132 125/156/132 134/165/132 135/166/132
f 127/158/133 126/157/133 135/166/133 136/167/133
f 128/159/134 127/158/134 136/167/134 137/168/134
f 129/160/135 128/159/135 137/168/135 138/169/135
f 136/167/136 135/166/136 144/175/136 145/176/136
f 137/168/137 136/167/137 145/176/137 146/177/137
f 138/169/138 137/168/138 146/177/138 147/178/138
f 139/170/139 138/169/139 147/178/139 148/179/139
f 140/171/140 139/170/140 148/179/140 149/180/140
f 133/164/141 51/66/141 142/173/141
f 141/172/142 140/171/142 149/180/142 150/181/142
f 134/165/143 133/164/143 142/173/143 143/174/143
f 135/166/144 134/165/144 143/174/144 144/175/144
f 149/180/145 148/179/145 157/188/145 158/189/145
f 142/173/146 51/67/146 151/182/146
f 150/181/147 149/180/147 158/189/147 159/190/147
f 143/174/148 142/173/148 151/182/148 152/183/148
f 144/175/149 143/174/149 152/183/149 153/184/149
f 145/176/150 144/175/150 153/184/150 154/185/150
f 146/177/151 145/176/151 154/185/151 155/186/151
f 147/178/152 146/177/152 155/186/152 156/187/152
f 148/179/153 147/178/153 156/187/153 157/188/153
f 155/186/154 154/185/154 163/194/154 164/195/154
f 156/187/155 155/186/155 164/195/155 165/196/155
f 157/188/156 156/187/156 165/196/156 166/197/156
f 158/189/157 157/188/157 166/197/157 167/198/157
f 151/182/158 51/68/158 160/191/158
f 159/190/159 158/189/159 167/198/159 168/199/159
f 152/183/160 151/182/160 160/191/160 161/192/160
f 153/184/161 152/183/161 161/192/161 162/193/161
f 154/185/162 153/184/162 162/193/162 163/194/162
f 160/191/163 51/69/163 169/200/163
f 168/199/164 167/198/164 176/207/164 177/208/164
f 161/192/165 160/191/165 169/200/165 170/201/165
f 162/193/166 161/192/166 170/201/166 171/202/166
f 163/194/167 162/193/167 171/202/167 172/203/167
f 164/195/168 163/194/168 172/203/168 173/204/168
f 165/196/169 164/195/169 173/204/169 174/205/169
f 166/197/170 165/196/170 174/205/170 175/206/170
f 167/198/171 166/197/171 175/206/171 176/207/171
f 173/204/172 172/203/172 181/212/172 182/213/172
f 174/205/173 173/204/173 182/213/173 183/214/173
f 175/206/174 174/205/174 183/214/174 184/215/174
f 176/207/175 175/206/175 184/215/175 185/216/175
f 169/200/176 51/70/176 178/209/176
f 177/208/177 176/207/177 185/216/177 186/217/177
f 170/201/178 169/200/178 178/209/178 179/210/178
f 171/202/179 170/201/179 179/210/179 180/211/179
f 172/203/180 171/202/180 180/211/180 181/212/180
f 186/217/181 185/216/181 194/225/181 195/226/181
f 179/210/182 178/209/182 187/218/182 188/219/182
f 180/211/183 179/210/183 188/219/183 189/220/183
f 181/212/184 180/211/184 189/220/184 190/221/184
f 182/213/185 181/212/185 190/221/185 191/222/185
f 183/214/186 182/213/186 191/222/186 192/223/186
f 184/215/187 183/214/187 192/223/187 193/224/187
f 185/216/188 184/215/188 193/224/188 194/225/188
f 178/209/189 51/71/189 187/218/189
f 192/223/190 191/222/190 200/231/190 201/232/190
f 193/224/191 192/223/191 201/232/191 202/233/191
f 194/225/192 193/224/192 202/233/192 203/234/192
f 187/218/193 51/72/193 196/227/193
f 195/226/194 194/225/194 203/234/194 204/235/194
f 188/219/195 187/218/195 196/227/195 197/228/195
f 189/220/196 188/219/196 197/228/196 198/229/196
f 190/221/197 189/220/197 198/229/197 199/230/197
f 191/222/198 190/221/198 199/230/198 200/231/198
f 197/228/199 196/227/199 205/236/199 206/237/199
f 198/229/200 197/228/200 206/237/200 207/238/200
f 199/230/201 198/229/201 207/238/201 208/239/201
f 200/231/202 199/230/202 208/239/202 209/240/202
f 201/232/203 200/231/203 209/240/203 210/241/203
f 202/233/204 201/232/204 210/241/204 211/242/204
f 203/234/205 202/233/205 211/242/205 212/243/205
f 196/227/206 51/73/206 205/236/206
f 204/235/207 203/234/207 212/243/207 213/244/207
f 210/241/208 209/240/208 218/253/208 219/255/208
f 211/242/209 210/241/209 219/255/209 220/257/209
f 212/243/210 211/242/210 220/257/210 221/259/210
f 205/236/211 51/74/211 214/245/211
f 213/244/212 212/243/212 221/259/212 222/261/212
f 206/237/213 205/236/213 214/245/213 215/247/213
f 207/238/214 206/237/214 215/247/214 216/249/214
f 208/239/215 207/238/215 216/249/215 217/251/215
f 209/240/216 208/239/216 217/251/216 218/253/216
f 216/250/217 215/248/217 224/264/217 225/265/217
f 217/252/218 216/250/218 225/265/218 226/266/218
f 218/254/219 217/252/219 226/266/219 227/267/219
f 219/256/220 218/254/220 227/267/220 228/268/220
f 220/258/221 219/256/221 228/268/221 229/269/221
f 221/260/222 220/258/222 229/269/222 230/270/222
f 214/246/223 51/75/223 223/263/223
f 222/262/224 221/260/224 230/270/224 231/271/224
f 215/248/225 214/246/225 223/263/225 224/264/225
f 229/269/226 228/268/226 237/277/226 238/278/226
f 230/270/227 229/269/227 238/278/227 239/279/227
f 223/263/228 51/76/228 232/272/228
f 231/271/229 230/270/229 239/279/229 240/280/229
f 224/264/230 223/263/230 232/272/230 233/273/230
f 225/265/231 224/264/231 233/273/231 234/274/231
f 226/266/232 225/265/232 234/274/232 235/275/232
f 227/267/233 226/266/233 235/275/233 236/276/233
f 228/268/234 227/267/234 236/276/234 237/277/234
f 235/275/235 234/274/235 243/283/235 244/284/235
f 236/276/236 235/275/236 244/284/236 245/285/236
f 237/277/237 236/276/237 245/285/237 246/286/237
f 238/278/238 237/277/238 246/286/238 247/287/238
f 239/279/239 238/278/239 247/287/239 248/288/239
f 232/272/240 51/77/240 241/281/240
f 240/280/241 239/279/241 248/288/241 249/289/241
f 233/273/242 232/272/242 241/281/242 242/282/242
f 234/274/243 233/273/243 242/282/243 243/283/243
f 248/288/244 247/287/244 256/296/244 257/297/244
f 241/281/245 51/78/245 250/290/245
f 249/289/246 248/288/246 257/297/246 258/298/246
f 242/282/247 241/281/247 250/290/247 251/291/247
f 243/283/248 242/282/248 251/291/248 252/292/248
f 244/284/249 243/283/249 252/292/249 253/293/249
f 245/285/250 244/284/250 253/293/250 254/294/250
f 246/286/251 245/285/251 254/294/251 255/295/251
f 247/287/252 246/286/252 255/295/252 256/296/252
f 253/293/253 252/292/253 261/301/253 262/302/253
f 254/294/254 253/293/254 262/302/254 263/303/254
f 255/295/255 254/294/255 263/303/255 264/304/255
f 256/296/256 255/295/256 264/304/256 265/305/256
f 257/297/257 256/296/257 265/305/257 266/306/257
f 250/290/258 51/79/258 259/299/258
f 258/298/259 257/297/259 266/306/259 267/307/259
f 251/291/260 250/290/260 259/299/260 260/300/260
f 252/292/261 251/291/261 260/300/261 261/301/261
f 266/306/262 265/305/262 274/314/262 275/315/262
f 259/299/263 51/80/263 268/308/263
f 267/307/264 266/306/264 275/315/264 276/316/264
f 260/300/265 259/299/265 268/308/265 269/309/265
f 261/301/266 260/300/266 269/309/266 270/310/266
f 262/302/267 261/301/267 270/310/267 271/311/267
f 263/303/268 262/302/268 271/311/268 272/312/268
f 264/304/269 263/303/269 272/312/269 273/313/269
f 265/305/270 264/304/270 273/313/270 274/314/270
f 272/312/271 271/311/271 280/320/271 281/321/271
f 273/313/272 272/312/272 281/321/272 282/322/272
f 274/314/273 273/313/273 282/322/273 283/323/273
f 275/315/274 274/314/274 283/323/274 284/324/274
f 268/308/275 51/81/275 277/317/275
f 276/316/276 275/315/276 284/324/276 285/325/276
f 269/309/277 268/308/277 277/317/277 278/318/277
f 270/310/278 269/309/278 278/318/278 279/319/278
f 271/311/279 270/310/279 279/319/279 280/320/279
f 277/317/280 51/82/280 286/326/280
f 285/325/281 284/324/281 4/4/281 5/5/281
f 278/318/282 277/317/282 286/326/282 287/327/282
f 279/319/283 278/318/283 287/327/283 1/1/283
f 280/320/284 279/319/284 1/1/284 288/328/284
f 281/321/285 280/320/285 288/328/285 2/2/285
f 282/322/286 281/321/286 2/2/286 289/329/286
f 283/323/287 282/322/287 289/329/287 3/3/287
f 284/324/288 283/323/288 3/3/288 4/4/288
